HIERARCHY
ROOT Hips
{
  OFFSET 0 0 0
  CHANNELS 6 Xposition Yposition Zposition Zrotation Yrotation Xrotation
  JOINT LeftThigh
  {
    OFFSET 8.409438 0 -5.917753
    CHANNELS 3 Zrotation Yrotation Xrotation
    JOINT LeftLeg
    {
      OFFSET 0 0 -42.358652
      CHANNELS 3 Zrotation Yrotation Xrotation
      JOINT LeftFoot
      {
        OFFSET 0 0 -39.357303
        CHANNELS 3 Zrotation Yrotation Xrotation
      }
    }
  }
  JOINT RightThigh
  {
    OFFSET -8.409438 0 -5.917753
    CHANNELS 3 Zrotation Yrotation Xrotation
    JOINT RightLeg
    {
      OFFSET 0 0 -42.358652
      CHANNELS 3 Zrotation Yrotation Xrotation
      JOINT RightFoot
      {
        OFFSET 0 0 -39.357303
        CHANNELS 3 Zrotation Yrotation Xrotation
      }
    }
  }
  JOINT SpineLow
  {
    OFFSET 0 0 4.719101
    CHANNELS 3 Zrotation Yrotation Xrotation
    JOINT SpineMid
    {
      OFFSET 0 0 12.899191
      CHANNELS 3 Zrotation Yrotation Xrotation
      JOINT Chest
      {
        OFFSET 0 0 12.899191
        CHANNELS 3 Zrotation Yrotation Xrotation
        JOINT LeftShoulder
        {
          OFFSET 7.550562 1.41573 9.438202
          CHANNELS 3 Zrotation Yrotation Xrotation
          JOINT LeftArm
          {
            OFFSET 9.155056 0 4.247191
            CHANNELS 3 Zrotation Yrotation Xrotation
            JOINT LeftForearm
            {
              OFFSET 0 0 25.771955
              CHANNELS 3 Zrotation Yrotation Xrotation
              JOINT LeftHand
              {
                OFFSET 0 0 25.197169
                CHANNELS 3 Zrotation Yrotation Xrotation
              }
            }
          }
        }
        JOINT RightShoulder
        {
          OFFSET -7.550562 1.41573 9.438202
          CHANNELS 3 Zrotation Yrotation Xrotation
          JOINT RightArm
          {
            OFFSET -9.155056 0 4.247191
            CHANNELS 3 Zrotation Yrotation Xrotation
            JOINT RightForearm
            {
              OFFSET 0 0 -25.771955
              CHANNELS 3 Zrotation Yrotation Xrotation
              JOINT RightHand
              {
                OFFSET 0 0 -25.197169
                CHANNELS 3 Zrotation Yrotation Xrotation
              }
            }
          }
        }
        JOINT Neck
        {
          OFFSET 0 0 15.101124
          CHANNELS 3 Zrotation Yrotation Xrotation
          JOINT Head
          {
            OFFSET 0 0 11.325843
            CHANNELS 3 Zrotation Yrotation Xrotation
            End Site
            {
              OFFSET 0 0 14.157303
            }
          }
        }
      }
    }
  }
}
MOTION
Frames: 13
Frame Time: 0.0
0.0  89.887642  0.0  -5.567585  53.352854  -97.810734  -27.74493  -13.173459  -10.250673  -14.768489  5.522475  28.086031  6.310947  0.820839  4.682891  -39.789587  11.900739  9.041596  -12.873416  6.902598  9.893695  4.459373  1.283159  0.43286  3.211925  -2.600886  -0.202283  8.832379  -7.067764  -0.901095  8.832379  -7.067764  -0.901095  -5.281921  24.302288  13.402802  144.428457  11.656561  171.636608  -43.752742  56.824337  76.929534  57.205445  -5.544721  28.811046  -1.034695  17.235841  3.685711  -81.930687  63.6109  -144.282926  -27.477534  15.094843  -115.926622  82.881119  6.937105  25.057814  -35.556793  8.194721  2.44456  -26.654931  6.028145  2.320263  
0.0  89.887642  0.0  -5.418444  53.256599  -97.714282  -28.011996  -13.079745  -10.236161  -14.483403  5.534797  28.194239  6.146411  0.805123  4.568011  -39.472657  11.99058  9.188033  -13.243499  6.865713  9.634155  4.314794  1.223365  0.40443  3.253086  -2.595967  -0.195007  8.944346  -7.054613  -0.884908  8.944346  -7.054613  -0.884909  -5.307283  24.218777  13.403144  144.009641  11.519795  171.623536  -43.943105  56.902109  76.960197  57.169077  -5.724542  28.633489  -1.155518  17.201437  3.681365  -81.912624  63.606965  -144.172511  -27.457852  15.092562  -115.92649  82.927644  6.909238  24.927447  -35.69039  8.226493  2.405359  -26.754176  6.054012  2.294562  
0.0  89.887642  0.0  -5.285763  53.131479  -97.6343  -28.25194  -13.020883  -10.17972  -14.308119  5.565121  28.163444  6.163158  0.814234  4.580228  -39.326248  12.059947  9.284679  -13.442085  6.841606  9.359456  4.331547  1.194199  0.389985  3.276685  -2.591177  -0.191658  9.008563  -7.0416  -0.877595  9.008563  -7.0416  -0.877595  -5.305662  24.205436  13.42365  144.079189  11.546485  171.641724  -43.964707  56.933347  76.954349  57.11728  -5.756724  28.562443  -1.245022  17.251263  3.723741  -81.778681  63.576612  -144.007258  -27.511247  15.099143  -115.944006  82.960574  6.914389  24.896575  -35.689335  8.25132  2.431514  -26.75357  6.071181  2.315675  
0.0  89.887642  0.0  -5.27719  52.935629  -97.652807  -28.249762  -13.077966  -10.008934  -14.265027  5.611629  28.056205  6.117018  0.829197  4.545864  -39.078228  12.141726  9.500258  -13.452843  6.73979  9.071844  4.126495  1.117356  0.358767  3.304257  -2.604436  -0.204153  9.085957  -7.075569  -0.916604  9.085957  -7.075569  -0.916604  -5.212751  24.205811  13.555701  144.010963  11.493745  171.675484  -43.782107  56.873504  77.187831  57.096672  -5.912084  28.477821  -1.174349  17.249137  3.925089  -82.025546  63.547923  -144.034796  -27.613006  15.12624  -116.034913  83.004761  6.910266  24.934872  -35.689226  8.317048  2.505744  -26.754045  6.116338  2.375357  
0.0  89.887642  0.0  -5.241964  52.799514  -97.64474  -28.392351  -13.043203  -9.904017  -14.184559  5.618154  27.984425  6.125893  0.838536  4.552045  -38.989719  12.185486  9.657155  -13.461499  6.660115  8.75546  4.107029  1.084856  0.343414  3.302845  -2.60966  -0.208484  9.08272  -7.089248  -0.929042  9.082721  -7.089248  -0.929043  -5.003156  24.206353  13.6323  144.117741  11.498841  171.750636  -43.615548  56.721669  77.355353  57.106981  -5.939069  28.49762  -1.103484  17.314671  4.041127  -81.964574  63.485101  -143.905526  -27.6691  15.143297  -116.077456  82.96486  6.903899  24.961254  -35.602273  8.34055  2.584293  -26.68988  6.129688  2.434536  
0.0  89.887642  0.0  -5.286059  52.558566  -97.67741  -28.108244  -13.162127  -9.720263  -14.287134  5.67321  27.831594  6.105913  0.840978  4.545795  -38.757142  12.20554  9.887932  -13.330099  6.565106  8.447459  3.927018  0.99364  0.31124  3.321152  -2.612426  -0.21527  9.133755  -7.095522  -0.949974  9.133756  -7.095522  -0.949974  -4.710408  24.074075  13.71146  144.078503  11.437525  171.845426  -43.258391  56.532024  77.674356  57.178492  -6.047962  28.497372  -1.016452  17.253347  4.164679  -82.283414  63.453969  -143.976535  -27.738529  15.069627  -116.177084  82.966693  6.904222  24.985737  -35.521383  8.317171  2.718129  -26.631375  6.104521  2.532596  
0.0  89.887642  0.0  -5.253433  52.412221  -97.588111  -28.060219  -13.154841  -9.720787  -14.309176  5.67757  27.783119  6.117938  0.846086  4.549377  -38.724881  12.219308  9.988693  -13.29605  6.453756  8.10913  3.916851  0.955313  0.299536  3.328133  -2.603635  -0.223438  9.153474  -7.070287  -0.971833  9.153475  -7.070287  -0.971833  -4.54329  24.019074  13.713825  144.153358  11.429807  171.92509  -42.995946  56.311575  77.932407  57.258253  -6.063348  28.586194  -1.030412  17.23293  4.182319  -82.354683  63.455243  -143.982944  -27.678983  15.013998  -116.168836  82.891879  6.87193  25.008498  -35.467969  8.267141  2.801592  -26.592899  6.062156  2.591633  
0.0  89.887642  0.0  -5.256402  52.285567  -97.492954  -27.899625  -13.221332  -9.768455  -14.327664  5.674924  27.790208  6.106962  0.852485  4.540467  -38.828618  12.273008  10.035726  -13.060694  6.310864  7.83229  3.818812  0.901107  0.279956  3.327384  -2.58109  -0.240899  9.152487  -7.006395  -1.016341  9.152487  -7.006395  -1.016341  -4.326031  23.82781  13.733273  144.296635  11.441888  171.972494  -42.55259  56.182034  78.251644  57.355789  -6.078281  28.673674  -0.956392  17.048131  4.248274  -82.800663  63.472539  -144.203981  -27.63182  14.918151  -116.184767  82.913477  6.882071  25.107234  -35.338936  8.187512  2.968254  -26.499138  5.992953  2.710416  
0.0  89.887642  0.0  -5.266552  52.115937  -97.384098  -27.771433  -13.265868  -9.851466  -14.312362  5.672774  27.810703  6.118177  0.85717  4.547034  -38.847026  12.276008  10.064546  -12.994903  6.165043  7.552002  3.8118  0.879631  0.261705  3.343196  -2.57242  -0.261465  9.197709  -6.979581  -1.073061  9.197708  -6.979581  -1.073061  -4.230874  23.775859  13.761979  144.368578  11.481607  172.039456  -42.333768  56.046043  78.433757  57.466701  -6.083533  28.777287  -1.058917  17.024236  4.271683  -82.827168  63.512183  -144.204265  -27.638336  14.926794  -116.159842  82.952419  6.887761  25.058051  -35.311141  8.160504  3.045332  -26.479567  5.968252  2.766386  
0.0  89.887642  0.0  -5.284906  52.043762  -97.228765  -27.697856  -13.344372  -10.007267  -14.332683  5.687453  27.838923  6.142905  0.886856  4.569208  -39.144647  12.297127  9.970716  -13.019001  6.006221  7.293243  3.925934  0.897291  0.250513  3.330979  -2.548795  -0.297954  9.167154  -6.910328  -1.168263  9.167154  -6.910328  -1.168263  -4.044654  23.629229  13.814443  144.642225  11.581749  172.066996  -41.830409  56.057917  78.628562  57.561419  -6.12581  28.80806  -1.104403  16.886347  4.334804  -83.014787  63.542209  -144.288467  -27.707228  14.968621  -116.194702  83.085597  6.885454  24.947578  -35.203768  8.134764  3.1884  -26.401313  5.941007  2.870911  
0.0  89.887642  0.0  -5.301973  51.851499  -97.11279  -27.484479  -13.423564  -10.102605  -14.366745  5.711722  27.859641  6.15419  0.896923  4.56318  -39.137274  12.317567  9.88916  -12.990818  5.87517  7.157835  3.947718  0.872857  0.235044  3.34008  -2.545378  -0.324356  9.194722  -6.897134  -1.240972  9.194722  -6.897134  -1.240973  -3.937666  23.624377  13.819119  144.618512  11.577587  172.071934  -41.811253  56.018628  78.657117  57.601046  -6.097198  28.779838  -1.143788  16.861892  4.415892  -83.076335  63.558312  -144.309125  -27.782701  15.029628  -116.183428  83.129502  6.920302  24.927697  -35.155762  8.162853  3.238252  -26.3659  5.959476  2.90933  
0.0  89.887642  0.0  -5.329911  51.704218  -97.022209  -27.328857  -13.489627  -10.193864  -14.364362  5.746182  27.92851  6.084915  0.892221  4.489657  -39.401814  12.365087  9.752902  -12.966643  5.738125  7.005355  4.048653  0.877594  0.240623  3.332566  -2.531124  -0.347982  9.176005  -6.855142  -1.302801  9.176006  -6.855142  -1.302801  -3.74899  23.511806  13.82177  144.623143  11.604828  172.054066  -41.627752  56.099491  78.72589  57.570338  -6.057192  28.612767  -1.1722  16.750402  4.493764  -83.355521  63.554728  -144.425885  -27.852582  14.999111  -116.218575  83.115928  6.971294  24.996136  -35.055122  8.177489  3.333533  -26.291796  5.965425  2.98036  
0.0  89.887642  0.0  -5.345287  51.483115  -96.968639  -27.109173  -13.565751  -10.220182  -14.384254  5.793122  27.937879  6.094713  0.902787  4.490182  -39.347047  12.368426  9.730879  -12.92148  5.668962  6.874919  4.0772  0.858467  0.241567  3.338387  -2.53154  -0.364037  9.193637  -6.853904  -1.347397  9.193637  -6.853904  -1.347397  -3.670547  23.529309  13.822694  144.546193  11.644194  172.030306  -41.735894  56.215244  78.604555  57.543067  -5.992238  28.456903  -1.19807  16.730746  4.571879  -83.384463  63.608227  -144.422923  -27.85881  15.00843  -116.172131  83.103182  6.981468  25.015893  -35.001956  8.228454  3.356508  -26.25203  6.002706  2.999806  
